<?xml version="1.0" encoding="UTF-8"?>
<svg width="24" height="24" viewBox="0 0 24 24" fill="none" xmlns="http://www.w3.org/2000/svg">
    <path d="M21.3566 10.2H12V14.4H17.4087C16.5544 16.8 14.3283 18.6 11.6087 18.6C8.23914 18.6 5.47827 15.84 5.47827 12.48C5.47827 9.12 8.23914 6.36 11.6087 6.36C13.0435 6.36 14.3283 6.84 15.3913 7.68L18.4957 4.56C16.6848 2.88 14.2783 1.8 11.6087 1.8C5.67392 1.8 0.891304 6.6 0.891304 12.48C0.891304 18.36 5.67392 23.16 11.6087 23.16C16.9761 23.16 21.3566 19.32 21.3566 12.48C21.3566 11.76 21.3566 10.92 21.3566 10.2Z" fill="#4285F4"/>
    <path d="M3.31305 7.56L6.85653 10.08C7.82175 7.92 9.58262 6.36 11.6087 6.36C13.0435 6.36 14.3283 6.84 15.3913 7.68L18.4957 4.56C16.6848 2.88 14.2783 1.8 11.6087 1.8C8.04349 1.8 4.91305 4.2 3.31305 7.56Z" fill="#EA4335"/>
    <path d="M11.6087 23.16C14.2283 23.16 16.5848 22.2 18.3957 20.64L15.0478 17.76C14.0326 18.36 12.8717 18.72 11.6087 18.72C8.91305 18.72 6.66087 16.92 5.82175 14.52L2.32827 17.28C3.90436 20.76 7.08262 23.16 11.6087 23.16Z" fill="#34A853"/>
    <path d="M21.3566 10.2H12V14.4H17.4087C17.0087 15.6 16.2848 16.56 15.3913 17.28L15.3935 17.2789L18.7413 20.1589C18.4957 20.4 21.3566 18.24 21.3566 12.48C21.3566 11.76 21.3566 10.92 21.3566 10.2Z" fill="#4285F4"/>
    <path d="M5.82175 14.52C5.62175 13.92 5.47827 13.2 5.47827 12.48C5.47827 11.76 5.57827 11.04 5.82175 10.44L5.82175 10.44L2.27827 7.92C1.67827 9.24 1.32827 10.8 1.32827 12.48C1.32827 14.16 1.67827 15.72 2.32827 17.28L5.82175 14.52Z" fill="#FBBC05"/>
</svg>
